<?xml version="1.0" encoding="utf-8"?>
<svg viewBox="18.033 11.124 81.967 88.019" xmlns="http://www.w3.org/2000/svg">
  <path style="fill: rgb(255, 74, 74); stroke-width: 5px; stroke: rgb(147, 0, 0);" d="M 44.292 18.862 C 44.292 18.862 57.576 44.361 59.938 45.685 C 64.429 48.202 100 43.277 100 43.277 L 98.281 25.395 C 98.281 25.395 75.903 35.711 68.19 32.446 C 62.293 29.948 59.25 11.124 59.25 11.124 L 44.292 18.862 Z" transform="matrix(1, 0, 0, 1, 7.105427357601002e-15, 0)"/>
  <path style="fill: rgb(255, 74, 74); stroke-width: 5px; stroke: rgb(147, 0, 0);" d="M 36.245 82.916 C 36.245 82.916 54.139 59.115 53.635 56.455 C 50.999 42.552 33.836 21.303 33.836 21.303 L 18.033 31.544 C 18.033 31.544 38.866 43.268 38.301 54.286 C 37.887 62.345 23.317 72.653 23.317 72.653 L 36.245 82.916 Z" transform="matrix(1, 0, 0, 1, 7.105427357601002e-15, 0)"/>
  <path style="stroke: rgb(147, 0, 0); stroke-width: 5px; fill: rgb(255, 74, 74);" d="M 95.122 53.568 C 95.122 53.568 64.934 52.851 63.085 54.829 C 58.126 60.136 48.426 91.592 48.426 91.592 L 64.944 99.143 C 64.944 99.143 63.525 74.756 72.389 68.701 C 77.679 65.089 96.448 70.463 96.448 70.463 L 95.122 53.568 Z" transform="matrix(1, 0, 0, 1, 7.105427357601002e-15, 0)"/>
</svg>