<?xml version="1.0" encoding="utf-8"?>
<svg viewBox="-10 0 110 100" width="90" height="100" xmlns="http://www.w3.org/2000/svg">
  <path style="stroke: rgb(118, 145, 255); fill: rgba(0, 255, 132, 0); stroke-width: 9px;" d="M 78.153 60.089 C 75.286 60.089 84.583 37.669 81.818 32.96 C 79.301 28.672 67.039 26.845 67.039 26.845 C 67.039 26.845 71.047 32.672 70.684 37.017 C 69.885 46.574 62.248 69.468 60.562 69.577 C 59.547 69.641 62.877 46.69 60.672 39.847 C 58.725 33.81 50.097 28.685 50.097 28.685 C 50.097 28.685 50.092 39.334 49.57 45.693 C 48.186 62.587 45.049 96.311 44.466 96.32 C 43.641 96.332 39.524 63.788 38.891 47.429 C 38.667 41.604 37.39 30.525 37.39 30.525 C 37.39 30.525 30.374 40.124 29.565 44.227 C 27.768 53.334 33.626 72.62 33.083 72.664 C 32.329 72.726 27.804 57.331 26.58 48.387 C 25.83 42.9 25.075 30.216 25.075 30.216 C 25.075 30.216 20.062 47.353 20.017 50.028 C 19.849 60.008 23.499 70.659 21.942 70.599 C 20.5 70.543 15.063 50.683 14.865 42.566 C 14.732 37.189 14.716 26.845 14.716 26.845 C 14.716 26.845 8.464 33.666 7.206 36.973 C 5.639 41.095 8.657 60.089 7.49 60.089 C 7.208 60.089 -0.387 27.305 0.014 23.573 C 0.315 20.808 27.589 -0.062 44.466 0 C 61.312 0.062 88.618 19.824 88.618 23.859 C 88.618 36.005 79.352 60.089 78.153 60.089 Z"/>
  <path style="fill: rgba(0, 255, 132, 0.52); stroke: rgb(118, 221, 255); stroke-width: 3px;" d="M 78.153 60.089 C 78.153 60.089 84.583 37.669 81.818 32.96 C 79.301 28.672 67.039 26.845 67.039 26.845 C 67.039 26.845 71.047 32.672 70.684 37.017 C 69.885 46.574 60.562 69.577 60.562 69.577 C 60.562 69.577 62.877 46.69 60.672 39.847 C 58.725 33.81 50.097 28.685 50.097 28.685 C 50.097 28.685 50.092 39.334 49.57 45.693 C 48.186 62.587 44.466 96.32 44.466 96.32 C 44.466 96.32 39.524 63.788 38.891 47.429 C 38.667 41.604 37.39 30.525 37.39 30.525 C 37.39 30.525 30.374 40.124 29.565 44.227 C 27.768 53.334 33.083 72.664 33.083 72.664 C 33.083 72.664 27.804 57.331 26.58 48.387 C 25.83 42.9 25.075 30.216 25.075 30.216 C 25.075 30.216 20.062 47.353 20.017 50.028 C 19.849 60.008 21.942 70.599 21.942 70.599 C 21.942 70.599 15.063 50.683 14.865 42.566 C 14.732 37.189 14.716 26.845 14.716 26.845 C 14.716 26.845 8.464 33.666 7.206 36.973 C 5.639 41.095 7.49 60.089 7.49 60.089 C 7.49 60.089 -0.387 27.305 0.014 23.573 C 0.315 20.808 27.589 -0.062 44.466 0 C 61.312 0.062 88.618 19.824 88.618 23.859 C 88.618 36.005 78.153 60.089 78.153 60.089 Z"/>
</svg>