<?xml version="1.0" encoding="utf-8"?>
<svg viewBox="99.9972 99.9972 200.0056 200.0056" width="300" height="300" xmlns="http://www.w3.org/2000/svg" xmlns:bx="https://boxy-svg.com">
  <path d="M 200 100 L 212.993 134.68 L 238.268 107.612 L 237.001 144.624 L 270.711 129.289 L 255.376 162.999 L 292.388 161.732 L 265.32 187.007 L 300 200 L 265.32 212.993 L 292.388 238.268 L 255.376 237.001 L 270.711 270.711 L 237.001 255.376 L 238.268 292.388 L 212.993 265.32 L 200 300 L 187.007 265.32 L 161.732 292.388 L 162.999 255.376 L 129.289 270.711 L 144.624 237.001 L 107.612 238.268 L 134.68 212.993 L 100 200 L 134.68 187.007 L 107.612 161.732 L 144.624 162.999 L 129.289 129.289 L 162.999 144.624 L 161.732 107.612 L 187.007 134.68 Z" style="stroke: rgb(255, 102, 71); stroke-width: 5px; stroke-linecap: round; fill: rgb(213, 68, 68); transform-origin: 200px 200px;" transform="matrix(1, 0.000028000004, -0.000028000004, 1, -7.3e-11, 7.3e-11)" bx:shape="star 200 200 100 100 0.666 16 1@bf583fcb"/>
</svg>